# xmcd
#
# Track frame offsets: 
#        150
#        17392
#        38862
#        56996
#        81320
#        98775
#        115774
#        137230
#        153217
#        173232
#
# Disc length: 2659 seconds
#
# Revision: 6
# Processed by: cddbd v1.5.2PL0 Copyright (c) Steve Scherf et al.
# Submitted via: ExactAudioCopyFreeDBPlugin 1.0
#
DISCID=7b0a610a
DTITLE=小比類巻かほる - I'm Here
DYEAR=1987
DGENRE=JPop
TTITLE0=PARTY
TTITLE1=Hold On Me
TTITLE2=Night Clubbing
TTITLE3=悲しき Moon Light
TTITLE4=Stranger's City
TTITLE5=Happy Birthday
TTITLE6=オーロラの瞳
TTITLE7=二人のゼネレーション
TTITLE8=GRAVITATION
TTITLE9=I'm Here
EXTD=
EXTT0=
EXTT1=
EXTT2=
EXTT3=
EXTT4=
EXTT5=
EXTT6=
EXTT7=
EXTT8=
EXTT9=
PLAYORDER=
